<svg viewBox="0 0 48 48" fill="none" xmlns="http://www.w3.org/2000/svg">
  <path
    fill-rule="evenodd"
    clip-rule="evenodd"
    d="M32.6521 24.8892L37.2635 30.7912H42.3444L34.8153 21.5238L41.7072 12.6792H36.9282L32.7025 18.2093L28.9128 12.6792H24.1002L30.4387 21.5238L23.5468 30.7912H28.5103L32.6521 24.8892ZM14.3848 12.6881C11.8439 12.7519 9.73274 13.6319 8.05104 15.3278C6.36935 17.0238 5.49683 19.1531 5.43359 21.7155V38.0377H8.99009V30.7836H14.3848C16.9273 30.7181 19.0453 29.8314 20.7386 28.1237C22.432 26.4159 23.3111 24.28 23.3761 21.7158C23.3112 19.1533 22.432 17.0241 20.7386 15.3281C19.0453 13.6321 16.9274 12.752 14.3848 12.6881ZM8.99009 27.1964V21.7155C9.02759 20.1664 9.55204 18.8819 10.5635 17.8617C11.575 16.8416 12.8488 16.3127 14.3848 16.2749C15.9399 16.3127 17.2254 16.8416 18.2411 17.8617C19.2567 18.8818 19.7829 20.1664 19.8195 21.7155C19.7829 23.2839 19.2567 24.5802 18.2411 25.6046C17.2254 26.629 15.9399 27.1596 14.3848 27.1964H8.99009Z"
    fill="currentColor"
  />
</svg>
